<mxfile host="app.diagrams.net" modified="2024-06-20T01:42:13.485Z" agent="Mozilla/5.0 (Windows NT 10.0; Win64; x64) AppleWebKit/537.36 (KHTML, like Gecko) Chrome/125.0.0.0 Safari/537.36" etag="XpH-yoi5bWa-mmCPNcgW" version="24.5.5" type="device">
  <diagram name="Page-1" id="xWSYVDh9-I43XROjteAA">
    <mxGraphModel dx="2071" dy="520" grid="1" gridSize="10" guides="1" tooltips="1" connect="1" arrows="1" fold="1" page="1" pageScale="1" pageWidth="827" pageHeight="1169" math="0" shadow="0">
      <root>
        <mxCell id="0" />
        <mxCell id="1" parent="0" />
        <mxCell id="HNDl7urIIbBph4469Otl-2" value="&lt;b&gt;Role&lt;/b&gt;&lt;div&gt;&lt;span style=&quot;color: rgb(77, 81, 86); font-family: &amp;quot;Google Sans&amp;quot;, arial, sans-serif; text-align: start; background-color: rgb(255, 255, 255);&quot;&gt;&lt;font style=&quot;font-size: 12px;&quot;&gt;&amp;lt;&amp;lt;enumeration&amp;gt;&amp;gt;&lt;/font&gt;&lt;/span&gt;&lt;b&gt;&lt;br&gt;&lt;/b&gt;&lt;/div&gt;" style="swimlane;fontStyle=0;childLayout=stackLayout;horizontal=1;startSize=40;fillColor=none;horizontalStack=0;resizeParent=1;resizeParentMax=0;resizeLast=0;collapsible=1;marginBottom=0;whiteSpace=wrap;html=1;" parent="1" vertex="1">
          <mxGeometry x="-45" y="560" width="140" height="118" as="geometry">
            <mxRectangle x="340" y="60" width="70" height="30" as="alternateBounds" />
          </mxGeometry>
        </mxCell>
        <mxCell id="HNDl7urIIbBph4469Otl-3" value="Admin" style="text;strokeColor=none;fillColor=none;align=left;verticalAlign=top;spacingLeft=4;spacingRight=4;overflow=hidden;rotatable=0;points=[[0,0.5],[1,0.5]];portConstraint=eastwest;whiteSpace=wrap;html=1;" parent="HNDl7urIIbBph4469Otl-2" vertex="1">
          <mxGeometry y="40" width="140" height="26" as="geometry" />
        </mxCell>
        <mxCell id="HNDl7urIIbBph4469Otl-4" value="Chef" style="text;strokeColor=none;fillColor=none;align=left;verticalAlign=top;spacingLeft=4;spacingRight=4;overflow=hidden;rotatable=0;points=[[0,0.5],[1,0.5]];portConstraint=eastwest;whiteSpace=wrap;html=1;" parent="HNDl7urIIbBph4469Otl-2" vertex="1">
          <mxGeometry y="66" width="140" height="26" as="geometry" />
        </mxCell>
        <mxCell id="HNDl7urIIbBph4469Otl-5" value="Employee" style="text;strokeColor=none;fillColor=none;align=left;verticalAlign=top;spacingLeft=4;spacingRight=4;overflow=hidden;rotatable=0;points=[[0,0.5],[1,0.5]];portConstraint=eastwest;whiteSpace=wrap;html=1;" parent="HNDl7urIIbBph4469Otl-2" vertex="1">
          <mxGeometry y="92" width="140" height="26" as="geometry" />
        </mxCell>
        <mxCell id="HNDl7urIIbBph4469Otl-10" value="User&lt;div&gt;&lt;span style=&quot;font-weight: normal;&quot;&gt;&amp;lt;&amp;lt;interface&amp;gt;&amp;gt;&lt;/span&gt;&lt;/div&gt;" style="swimlane;fontStyle=1;align=center;verticalAlign=top;childLayout=stackLayout;horizontal=1;startSize=40;horizontalStack=0;resizeParent=1;resizeParentMax=0;resizeLast=0;collapsible=1;marginBottom=0;whiteSpace=wrap;html=1;" parent="1" vertex="1">
          <mxGeometry x="-55" y="740" width="160" height="152" as="geometry" />
        </mxCell>
        <mxCell id="HNDl7urIIbBph4469Otl-11" value="+Emp_id: int" style="text;strokeColor=none;fillColor=none;align=left;verticalAlign=top;spacingLeft=4;spacingRight=4;overflow=hidden;rotatable=0;points=[[0,0.5],[1,0.5]];portConstraint=eastwest;whiteSpace=wrap;html=1;" parent="HNDl7urIIbBph4469Otl-10" vertex="1">
          <mxGeometry y="40" width="160" height="26" as="geometry" />
        </mxCell>
        <mxCell id="HNDl7urIIbBph4469Otl-14" value="+name: String" style="text;strokeColor=none;fillColor=none;align=left;verticalAlign=top;spacingLeft=4;spacingRight=4;overflow=hidden;rotatable=0;points=[[0,0.5],[1,0.5]];portConstraint=eastwest;whiteSpace=wrap;html=1;" parent="HNDl7urIIbBph4469Otl-10" vertex="1">
          <mxGeometry y="66" width="160" height="26" as="geometry" />
        </mxCell>
        <mxCell id="HNDl7urIIbBph4469Otl-15" value="+role: Role" style="text;strokeColor=none;fillColor=none;align=left;verticalAlign=top;spacingLeft=4;spacingRight=4;overflow=hidden;rotatable=0;points=[[0,0.5],[1,0.5]];portConstraint=eastwest;whiteSpace=wrap;html=1;" parent="HNDl7urIIbBph4469Otl-10" vertex="1">
          <mxGeometry y="92" width="160" height="26" as="geometry" />
        </mxCell>
        <mxCell id="HNDl7urIIbBph4469Otl-12" value="" style="line;strokeWidth=1;fillColor=none;align=left;verticalAlign=middle;spacingTop=-1;spacingLeft=3;spacingRight=3;rotatable=0;labelPosition=right;points=[];portConstraint=eastwest;strokeColor=inherit;" parent="HNDl7urIIbBph4469Otl-10" vertex="1">
          <mxGeometry y="118" width="160" height="8" as="geometry" />
        </mxCell>
        <mxCell id="HNDl7urIIbBph4469Otl-13" value="+login()" style="text;strokeColor=none;fillColor=none;align=left;verticalAlign=top;spacingLeft=4;spacingRight=4;overflow=hidden;rotatable=0;points=[[0,0.5],[1,0.5]];portConstraint=eastwest;whiteSpace=wrap;html=1;" parent="HNDl7urIIbBph4469Otl-10" vertex="1">
          <mxGeometry y="126" width="160" height="26" as="geometry" />
        </mxCell>
        <mxCell id="HNDl7urIIbBph4469Otl-16" value="&lt;b&gt;Admin&lt;/b&gt;" style="swimlane;fontStyle=0;childLayout=stackLayout;horizontal=1;startSize=26;fillColor=none;horizontalStack=0;resizeParent=1;resizeParentMax=0;resizeLast=0;collapsible=1;marginBottom=0;whiteSpace=wrap;html=1;" parent="1" vertex="1">
          <mxGeometry x="170" y="980" width="180" height="112" as="geometry" />
        </mxCell>
        <mxCell id="HNDl7urIIbBph4469Otl-47" value="" style="line;strokeWidth=1;fillColor=none;align=left;verticalAlign=middle;spacingTop=-1;spacingLeft=3;spacingRight=3;rotatable=0;labelPosition=right;points=[];portConstraint=eastwest;strokeColor=inherit;" parent="HNDl7urIIbBph4469Otl-16" vertex="1">
          <mxGeometry y="26" width="180" height="8" as="geometry" />
        </mxCell>
        <mxCell id="HNDl7urIIbBph4469Otl-17" value="+add_menu_item(MenuItem)" style="text;strokeColor=none;fillColor=none;align=left;verticalAlign=top;spacingLeft=4;spacingRight=4;overflow=hidden;rotatable=0;points=[[0,0.5],[1,0.5]];portConstraint=eastwest;whiteSpace=wrap;html=1;" parent="HNDl7urIIbBph4469Otl-16" vertex="1">
          <mxGeometry y="34" width="180" height="26" as="geometry" />
        </mxCell>
        <mxCell id="HNDl7urIIbBph4469Otl-18" value="+update_menu_item(MenuItem)" style="text;strokeColor=none;fillColor=none;align=left;verticalAlign=top;spacingLeft=4;spacingRight=4;overflow=hidden;rotatable=0;points=[[0,0.5],[1,0.5]];portConstraint=eastwest;whiteSpace=wrap;html=1;" parent="HNDl7urIIbBph4469Otl-16" vertex="1">
          <mxGeometry y="60" width="180" height="26" as="geometry" />
        </mxCell>
        <mxCell id="HNDl7urIIbBph4469Otl-19" value="+delete_menu_item(MenuItem)" style="text;strokeColor=none;fillColor=none;align=left;verticalAlign=top;spacingLeft=4;spacingRight=4;overflow=hidden;rotatable=0;points=[[0,0.5],[1,0.5]];portConstraint=eastwest;whiteSpace=wrap;html=1;" parent="HNDl7urIIbBph4469Otl-16" vertex="1">
          <mxGeometry y="86" width="180" height="26" as="geometry" />
        </mxCell>
        <mxCell id="HNDl7urIIbBph4469Otl-20" value="&lt;b&gt;Authentication&lt;/b&gt;" style="swimlane;fontStyle=0;childLayout=stackLayout;horizontal=1;startSize=26;fillColor=none;horizontalStack=0;resizeParent=1;resizeParentMax=0;resizeLast=0;collapsible=1;marginBottom=0;whiteSpace=wrap;html=1;" parent="1" vertex="1">
          <mxGeometry x="290" y="740" width="140" height="60" as="geometry" />
        </mxCell>
        <mxCell id="HNDl7urIIbBph4469Otl-48" value="" style="line;strokeWidth=1;fillColor=none;align=left;verticalAlign=middle;spacingTop=-1;spacingLeft=3;spacingRight=3;rotatable=0;labelPosition=right;points=[];portConstraint=eastwest;strokeColor=inherit;" parent="HNDl7urIIbBph4469Otl-20" vertex="1">
          <mxGeometry y="26" width="140" height="8" as="geometry" />
        </mxCell>
        <mxCell id="HNDl7urIIbBph4469Otl-21" value="authenticate(User)" style="text;strokeColor=none;fillColor=none;align=left;verticalAlign=top;spacingLeft=4;spacingRight=4;overflow=hidden;rotatable=0;points=[[0,0.5],[1,0.5]];portConstraint=eastwest;whiteSpace=wrap;html=1;" parent="HNDl7urIIbBph4469Otl-20" vertex="1">
          <mxGeometry y="34" width="140" height="26" as="geometry" />
        </mxCell>
        <mxCell id="HNDl7urIIbBph4469Otl-25" value="MenuItem" style="swimlane;fontStyle=1;align=center;verticalAlign=top;childLayout=stackLayout;horizontal=1;startSize=26;horizontalStack=0;resizeParent=1;resizeParentMax=0;resizeLast=0;collapsible=1;marginBottom=0;whiteSpace=wrap;html=1;" parent="1" vertex="1">
          <mxGeometry x="190" y="1440" width="160" height="138" as="geometry" />
        </mxCell>
        <mxCell id="HNDl7urIIbBph4469Otl-26" value="+Id: int" style="text;strokeColor=none;fillColor=none;align=left;verticalAlign=top;spacingLeft=4;spacingRight=4;overflow=hidden;rotatable=0;points=[[0,0.5],[1,0.5]];portConstraint=eastwest;whiteSpace=wrap;html=1;" parent="HNDl7urIIbBph4469Otl-25" vertex="1">
          <mxGeometry y="26" width="160" height="26" as="geometry" />
        </mxCell>
        <mxCell id="HNDl7urIIbBph4469Otl-30" value="+item_name: String" style="text;strokeColor=none;fillColor=none;align=left;verticalAlign=top;spacingLeft=4;spacingRight=4;overflow=hidden;rotatable=0;points=[[0,0.5],[1,0.5]];portConstraint=eastwest;whiteSpace=wrap;html=1;" parent="HNDl7urIIbBph4469Otl-25" vertex="1">
          <mxGeometry y="52" width="160" height="26" as="geometry" />
        </mxCell>
        <mxCell id="HNDl7urIIbBph4469Otl-29" value="+price: float" style="text;strokeColor=none;fillColor=none;align=left;verticalAlign=top;spacingLeft=4;spacingRight=4;overflow=hidden;rotatable=0;points=[[0,0.5],[1,0.5]];portConstraint=eastwest;whiteSpace=wrap;html=1;" parent="HNDl7urIIbBph4469Otl-25" vertex="1">
          <mxGeometry y="78" width="160" height="26" as="geometry" />
        </mxCell>
        <mxCell id="HNDl7urIIbBph4469Otl-31" value="+availability: boolean" style="text;strokeColor=none;fillColor=none;align=left;verticalAlign=top;spacingLeft=4;spacingRight=4;overflow=hidden;rotatable=0;points=[[0,0.5],[1,0.5]];portConstraint=eastwest;whiteSpace=wrap;html=1;" parent="HNDl7urIIbBph4469Otl-25" vertex="1">
          <mxGeometry y="104" width="160" height="26" as="geometry" />
        </mxCell>
        <mxCell id="HNDl7urIIbBph4469Otl-27" value="" style="line;strokeWidth=1;fillColor=none;align=left;verticalAlign=middle;spacingTop=-1;spacingLeft=3;spacingRight=3;rotatable=0;labelPosition=right;points=[];portConstraint=eastwest;strokeColor=inherit;" parent="HNDl7urIIbBph4469Otl-25" vertex="1">
          <mxGeometry y="130" width="160" height="8" as="geometry" />
        </mxCell>
        <mxCell id="HNDl7urIIbBph4469Otl-32" value="Feedback" style="swimlane;fontStyle=1;align=center;verticalAlign=top;childLayout=stackLayout;horizontal=1;startSize=26;horizontalStack=0;resizeParent=1;resizeParentMax=0;resizeLast=0;collapsible=1;marginBottom=0;whiteSpace=wrap;html=1;" parent="1" vertex="1">
          <mxGeometry x="-16" y="1210" width="160" height="190" as="geometry" />
        </mxCell>
        <mxCell id="HNDl7urIIbBph4469Otl-36" value="+feedback_id: int" style="text;strokeColor=none;fillColor=none;align=left;verticalAlign=top;spacingLeft=4;spacingRight=4;overflow=hidden;rotatable=0;points=[[0,0.5],[1,0.5]];portConstraint=eastwest;whiteSpace=wrap;html=1;" parent="HNDl7urIIbBph4469Otl-32" vertex="1">
          <mxGeometry y="26" width="160" height="26" as="geometry" />
        </mxCell>
        <mxCell id="HNDl7urIIbBph4469Otl-38" value="+menu_item: MenuItem" style="text;strokeColor=none;fillColor=none;align=left;verticalAlign=top;spacingLeft=4;spacingRight=4;overflow=hidden;rotatable=0;points=[[0,0.5],[1,0.5]];portConstraint=eastwest;whiteSpace=wrap;html=1;" parent="HNDl7urIIbBph4469Otl-32" vertex="1">
          <mxGeometry y="52" width="160" height="26" as="geometry" />
        </mxCell>
        <mxCell id="HNDl7urIIbBph4469Otl-37" value="+employee: User" style="text;strokeColor=none;fillColor=none;align=left;verticalAlign=top;spacingLeft=4;spacingRight=4;overflow=hidden;rotatable=0;points=[[0,0.5],[1,0.5]];portConstraint=eastwest;whiteSpace=wrap;html=1;" parent="HNDl7urIIbBph4469Otl-32" vertex="1">
          <mxGeometry y="78" width="160" height="26" as="geometry" />
        </mxCell>
        <mxCell id="HNDl7urIIbBph4469Otl-39" value="+rating: int" style="text;strokeColor=none;fillColor=none;align=left;verticalAlign=top;spacingLeft=4;spacingRight=4;overflow=hidden;rotatable=0;points=[[0,0.5],[1,0.5]];portConstraint=eastwest;whiteSpace=wrap;html=1;" parent="HNDl7urIIbBph4469Otl-32" vertex="1">
          <mxGeometry y="104" width="160" height="26" as="geometry" />
        </mxCell>
        <mxCell id="HNDl7urIIbBph4469Otl-33" value="+comment: str" style="text;strokeColor=none;fillColor=none;align=left;verticalAlign=top;spacingLeft=4;spacingRight=4;overflow=hidden;rotatable=0;points=[[0,0.5],[1,0.5]];portConstraint=eastwest;whiteSpace=wrap;html=1;" parent="HNDl7urIIbBph4469Otl-32" vertex="1">
          <mxGeometry y="130" width="160" height="26" as="geometry" />
        </mxCell>
        <mxCell id="HNDl7urIIbBph4469Otl-41" value="+feedback_date: date" style="text;strokeColor=none;fillColor=none;align=left;verticalAlign=top;spacingLeft=4;spacingRight=4;overflow=hidden;rotatable=0;points=[[0,0.5],[1,0.5]];portConstraint=eastwest;whiteSpace=wrap;html=1;" parent="HNDl7urIIbBph4469Otl-32" vertex="1">
          <mxGeometry y="156" width="160" height="26" as="geometry" />
        </mxCell>
        <mxCell id="HNDl7urIIbBph4469Otl-34" value="" style="line;strokeWidth=1;fillColor=none;align=left;verticalAlign=middle;spacingTop=-1;spacingLeft=3;spacingRight=3;rotatable=0;labelPosition=right;points=[];portConstraint=eastwest;strokeColor=inherit;" parent="HNDl7urIIbBph4469Otl-32" vertex="1">
          <mxGeometry y="182" width="160" height="8" as="geometry" />
        </mxCell>
        <mxCell id="HNDl7urIIbBph4469Otl-43" value="Chef" style="swimlane;fontStyle=1;align=center;verticalAlign=top;childLayout=stackLayout;horizontal=1;startSize=26;horizontalStack=0;resizeParent=1;resizeParentMax=0;resizeLast=0;collapsible=1;marginBottom=0;whiteSpace=wrap;html=1;" parent="1" vertex="1">
          <mxGeometry x="-330" y="980" width="210" height="112" as="geometry" />
        </mxCell>
        <mxCell id="HNDl7urIIbBph4469Otl-45" value="" style="line;strokeWidth=1;fillColor=none;align=left;verticalAlign=middle;spacingTop=-1;spacingLeft=3;spacingRight=3;rotatable=0;labelPosition=right;points=[];portConstraint=eastwest;strokeColor=inherit;" parent="HNDl7urIIbBph4469Otl-43" vertex="1">
          <mxGeometry y="26" width="210" height="8" as="geometry" />
        </mxCell>
        <mxCell id="HNDl7urIIbBph4469Otl-46" value="+generate_monthly_report(Feedback)" style="text;strokeColor=none;fillColor=none;align=left;verticalAlign=top;spacingLeft=4;spacingRight=4;overflow=hidden;rotatable=0;points=[[0,0.5],[1,0.5]];portConstraint=eastwest;whiteSpace=wrap;html=1;" parent="HNDl7urIIbBph4469Otl-43" vertex="1">
          <mxGeometry y="34" width="210" height="26" as="geometry" />
        </mxCell>
        <mxCell id="HNDl7urIIbBph4469Otl-59" value="+roll_out_menu()" style="text;strokeColor=none;fillColor=none;align=left;verticalAlign=top;spacingLeft=4;spacingRight=4;overflow=hidden;rotatable=0;points=[[0,0.5],[1,0.5]];portConstraint=eastwest;whiteSpace=wrap;html=1;" parent="HNDl7urIIbBph4469Otl-43" vertex="1">
          <mxGeometry y="60" width="210" height="26" as="geometry" />
        </mxCell>
        <mxCell id="HNDl7urIIbBph4469Otl-51" value="+get_food recommendation()" style="text;strokeColor=none;fillColor=none;align=left;verticalAlign=top;spacingLeft=4;spacingRight=4;overflow=hidden;rotatable=0;points=[[0,0.5],[1,0.5]];portConstraint=eastwest;whiteSpace=wrap;html=1;" parent="HNDl7urIIbBph4469Otl-43" vertex="1">
          <mxGeometry y="86" width="210" height="26" as="geometry" />
        </mxCell>
        <mxCell id="HNDl7urIIbBph4469Otl-52" value="Notification" style="swimlane;fontStyle=1;align=center;verticalAlign=top;childLayout=stackLayout;horizontal=1;startSize=26;horizontalStack=0;resizeParent=1;resizeParentMax=0;resizeLast=0;collapsible=1;marginBottom=0;whiteSpace=wrap;html=1;" parent="1" vertex="1">
          <mxGeometry x="-320" y="1236" width="200" height="164" as="geometry" />
        </mxCell>
        <mxCell id="HNDl7urIIbBph4469Otl-53" value="+id: int" style="text;strokeColor=none;fillColor=none;align=left;verticalAlign=top;spacingLeft=4;spacingRight=4;overflow=hidden;rotatable=0;points=[[0,0.5],[1,0.5]];portConstraint=eastwest;whiteSpace=wrap;html=1;" parent="HNDl7urIIbBph4469Otl-52" vertex="1">
          <mxGeometry y="26" width="200" height="26" as="geometry" />
        </mxCell>
        <mxCell id="HNDl7urIIbBph4469Otl-57" value="+message: String" style="text;strokeColor=none;fillColor=none;align=left;verticalAlign=top;spacingLeft=4;spacingRight=4;overflow=hidden;rotatable=0;points=[[0,0.5],[1,0.5]];portConstraint=eastwest;whiteSpace=wrap;html=1;" parent="HNDl7urIIbBph4469Otl-52" vertex="1">
          <mxGeometry y="52" width="200" height="26" as="geometry" />
        </mxCell>
        <mxCell id="HNDl7urIIbBph4469Otl-58" value="+user: User" style="text;strokeColor=none;fillColor=none;align=left;verticalAlign=top;spacingLeft=4;spacingRight=4;overflow=hidden;rotatable=0;points=[[0,0.5],[1,0.5]];portConstraint=eastwest;whiteSpace=wrap;html=1;" parent="HNDl7urIIbBph4469Otl-52" vertex="1">
          <mxGeometry y="78" width="200" height="26" as="geometry" />
        </mxCell>
        <mxCell id="HNDl7urIIbBph4469Otl-56" value="+notification_date: date" style="text;strokeColor=none;fillColor=none;align=left;verticalAlign=top;spacingLeft=4;spacingRight=4;overflow=hidden;rotatable=0;points=[[0,0.5],[1,0.5]];portConstraint=eastwest;whiteSpace=wrap;html=1;" parent="HNDl7urIIbBph4469Otl-52" vertex="1">
          <mxGeometry y="104" width="200" height="26" as="geometry" />
        </mxCell>
        <mxCell id="HNDl7urIIbBph4469Otl-54" value="" style="line;strokeWidth=1;fillColor=none;align=left;verticalAlign=middle;spacingTop=-1;spacingLeft=3;spacingRight=3;rotatable=0;labelPosition=right;points=[];portConstraint=eastwest;strokeColor=inherit;" parent="HNDl7urIIbBph4469Otl-52" vertex="1">
          <mxGeometry y="130" width="200" height="8" as="geometry" />
        </mxCell>
        <mxCell id="HNDl7urIIbBph4469Otl-55" value="+send_notification(User, message)" style="text;strokeColor=none;fillColor=none;align=left;verticalAlign=top;spacingLeft=4;spacingRight=4;overflow=hidden;rotatable=0;points=[[0,0.5],[1,0.5]];portConstraint=eastwest;whiteSpace=wrap;html=1;" parent="HNDl7urIIbBph4469Otl-52" vertex="1">
          <mxGeometry y="138" width="200" height="26" as="geometry" />
        </mxCell>
        <mxCell id="HNDl7urIIbBph4469Otl-60" value="Employee" style="swimlane;fontStyle=1;align=center;verticalAlign=top;childLayout=stackLayout;horizontal=1;startSize=26;horizontalStack=0;resizeParent=1;resizeParentMax=0;resizeLast=0;collapsible=1;marginBottom=0;whiteSpace=wrap;html=1;" parent="1" vertex="1">
          <mxGeometry x="-70" y="980" width="220" height="86" as="geometry" />
        </mxCell>
        <mxCell id="HNDl7urIIbBph4469Otl-62" value="" style="line;strokeWidth=1;fillColor=none;align=left;verticalAlign=middle;spacingTop=-1;spacingLeft=3;spacingRight=3;rotatable=0;labelPosition=right;points=[];portConstraint=eastwest;strokeColor=inherit;" parent="HNDl7urIIbBph4469Otl-60" vertex="1">
          <mxGeometry y="26" width="220" height="8" as="geometry" />
        </mxCell>
        <mxCell id="HNDl7urIIbBph4469Otl-63" value="+Choose_Menu_item(MenuItem)" style="text;strokeColor=none;fillColor=none;align=left;verticalAlign=top;spacingLeft=4;spacingRight=4;overflow=hidden;rotatable=0;points=[[0,0.5],[1,0.5]];portConstraint=eastwest;whiteSpace=wrap;html=1;" parent="HNDl7urIIbBph4469Otl-60" vertex="1">
          <mxGeometry y="34" width="220" height="26" as="geometry" />
        </mxCell>
        <mxCell id="HNDl7urIIbBph4469Otl-77" value="+provide_feedback(Feedback)" style="text;strokeColor=none;fillColor=none;align=left;verticalAlign=top;spacingLeft=4;spacingRight=4;overflow=hidden;rotatable=0;points=[[0,0.5],[1,0.5]];portConstraint=eastwest;whiteSpace=wrap;html=1;" parent="HNDl7urIIbBph4469Otl-60" vertex="1">
          <mxGeometry y="60" width="220" height="26" as="geometry" />
        </mxCell>
        <mxCell id="HNDl7urIIbBph4469Otl-64" value="" style="endArrow=diamondThin;endFill=0;endSize=24;html=1;rounded=0;entryX=0;entryY=0.5;entryDx=0;entryDy=0;exitX=0.5;exitY=0;exitDx=0;exitDy=0;" parent="1" source="HNDl7urIIbBph4469Otl-43" target="HNDl7urIIbBph4469Otl-14" edge="1">
          <mxGeometry width="160" relative="1" as="geometry">
            <mxPoint x="-280" y="860" as="sourcePoint" />
            <mxPoint x="-120" y="860" as="targetPoint" />
            <Array as="points">
              <mxPoint x="-225" y="819" />
            </Array>
          </mxGeometry>
        </mxCell>
        <mxCell id="HNDl7urIIbBph4469Otl-65" value="" style="endArrow=diamondThin;endFill=0;endSize=24;html=1;rounded=0;exitX=0.467;exitY=-0.029;exitDx=0;exitDy=0;exitPerimeter=0;" parent="1" source="HNDl7urIIbBph4469Otl-60" edge="1">
          <mxGeometry width="160" relative="1" as="geometry">
            <mxPoint x="80" y="890" as="sourcePoint" />
            <mxPoint x="28" y="891" as="targetPoint" />
          </mxGeometry>
        </mxCell>
        <mxCell id="HNDl7urIIbBph4469Otl-66" value="" style="endArrow=diamondThin;endFill=0;endSize=24;html=1;rounded=0;exitX=0.5;exitY=0;exitDx=0;exitDy=0;entryX=1;entryY=0.5;entryDx=0;entryDy=0;" parent="1" source="HNDl7urIIbBph4469Otl-16" target="HNDl7urIIbBph4469Otl-14" edge="1">
          <mxGeometry width="160" relative="1" as="geometry">
            <mxPoint x="80" y="890" as="sourcePoint" />
            <mxPoint x="240" y="890" as="targetPoint" />
            <Array as="points">
              <mxPoint x="260" y="819" />
            </Array>
          </mxGeometry>
        </mxCell>
        <mxCell id="HNDl7urIIbBph4469Otl-67" value="" style="endArrow=open;endFill=1;endSize=12;html=1;rounded=0;exitX=0.5;exitY=0;exitDx=0;exitDy=0;" parent="1" source="HNDl7urIIbBph4469Otl-10" target="HNDl7urIIbBph4469Otl-5" edge="1">
          <mxGeometry width="160" relative="1" as="geometry">
            <mxPoint x="80" y="710" as="sourcePoint" />
            <mxPoint x="240" y="710" as="targetPoint" />
          </mxGeometry>
        </mxCell>
        <mxCell id="HNDl7urIIbBph4469Otl-76" value="" style="endArrow=open;endFill=1;endSize=12;html=1;rounded=0;exitX=0.782;exitY=1.016;exitDx=0;exitDy=0;exitPerimeter=0;entryX=0.25;entryY=0;entryDx=0;entryDy=0;" parent="1" source="HNDl7urIIbBph4469Otl-51" target="HNDl7urIIbBph4469Otl-32" edge="1">
          <mxGeometry width="160" relative="1" as="geometry">
            <mxPoint x="-73" y="1105" as="sourcePoint" />
            <mxPoint x="-70" y="1245" as="targetPoint" />
            <Array as="points">
              <mxPoint x="-166" y="1140" />
              <mxPoint x="24" y="1140" />
            </Array>
          </mxGeometry>
        </mxCell>
        <mxCell id="1cUmo2CFuUWQBgGda_d_-2" value="" style="endArrow=open;endFill=1;endSize=12;html=1;rounded=0;entryX=0.012;entryY=0.015;entryDx=0;entryDy=0;entryPerimeter=0;exitX=0.969;exitY=0.197;exitDx=0;exitDy=0;exitPerimeter=0;" parent="1" source="HNDl7urIIbBph4469Otl-10" edge="1">
          <mxGeometry width="160" relative="1" as="geometry">
            <mxPoint x="188" y="769.47" as="sourcePoint" />
            <mxPoint x="290" y="770.47" as="targetPoint" />
          </mxGeometry>
        </mxCell>
        <mxCell id="1cUmo2CFuUWQBgGda_d_-6" value="" style="endArrow=none;html=1;rounded=0;entryX=0.334;entryY=0.97;entryDx=0;entryDy=0;entryPerimeter=0;exitX=0.301;exitY=-0.001;exitDx=0;exitDy=0;exitPerimeter=0;" parent="1" source="HNDl7urIIbBph4469Otl-52" target="HNDl7urIIbBph4469Otl-51" edge="1">
          <mxGeometry width="50" height="50" relative="1" as="geometry">
            <mxPoint x="-340" y="1150" as="sourcePoint" />
            <mxPoint x="-290" y="1100" as="targetPoint" />
          </mxGeometry>
        </mxCell>
        <mxCell id="1cUmo2CFuUWQBgGda_d_-7" value="" style="endArrow=none;html=1;rounded=0;entryX=0.243;entryY=1.26;entryDx=0;entryDy=0;entryPerimeter=0;" parent="1" target="HNDl7urIIbBph4469Otl-77" edge="1">
          <mxGeometry width="50" height="50" relative="1" as="geometry">
            <mxPoint x="-210" y="1230" as="sourcePoint" />
            <mxPoint x="-160" y="1180" as="targetPoint" />
            <Array as="points">
              <mxPoint x="-210" y="1180" />
              <mxPoint x="-21" y="1180" />
            </Array>
          </mxGeometry>
        </mxCell>
        <mxCell id="1cUmo2CFuUWQBgGda_d_-8" value="" style="endArrow=none;html=1;rounded=0;exitX=0.668;exitY=-0.002;exitDx=0;exitDy=0;exitPerimeter=0;" parent="1" source="HNDl7urIIbBph4469Otl-32" edge="1">
          <mxGeometry width="50" height="50" relative="1" as="geometry">
            <mxPoint x="40" y="1120" as="sourcePoint" />
            <mxPoint x="90" y="1070" as="targetPoint" />
          </mxGeometry>
        </mxCell>
        <mxCell id="1cUmo2CFuUWQBgGda_d_-9" value="" style="endArrow=none;html=1;rounded=0;exitX=0.5;exitY=0;exitDx=0;exitDy=0;entryX=0.544;entryY=0.97;entryDx=0;entryDy=0;entryPerimeter=0;" parent="1" source="HNDl7urIIbBph4469Otl-25" target="HNDl7urIIbBph4469Otl-19" edge="1">
          <mxGeometry width="50" height="50" relative="1" as="geometry">
            <mxPoint x="210" y="1150" as="sourcePoint" />
            <mxPoint x="260" y="1100" as="targetPoint" />
          </mxGeometry>
        </mxCell>
        <mxCell id="1cUmo2CFuUWQBgGda_d_-10" value="" style="endArrow=none;html=1;rounded=0;" parent="1" edge="1">
          <mxGeometry width="50" height="50" relative="1" as="geometry">
            <mxPoint x="180" y="1540" as="sourcePoint" />
            <mxPoint x="-330" y="1060" as="targetPoint" />
            <Array as="points">
              <mxPoint x="-390" y="1540" />
              <mxPoint x="-390" y="1060" />
            </Array>
          </mxGeometry>
        </mxCell>
        <mxCell id="X2-w0m3Bgo1d-Rihj-AI-1" value="Recommandation engin" style="swimlane;fontStyle=1;align=center;verticalAlign=top;childLayout=stackLayout;horizontal=1;startSize=26;horizontalStack=0;resizeParent=1;resizeParentMax=0;resizeLast=0;collapsible=1;marginBottom=0;whiteSpace=wrap;html=1;" vertex="1" parent="1">
          <mxGeometry x="-120" y="1460" width="170" height="60" as="geometry" />
        </mxCell>
        <mxCell id="X2-w0m3Bgo1d-Rihj-AI-3" value="Food recommdations" style="text;strokeColor=none;fillColor=none;align=left;verticalAlign=top;spacingLeft=4;spacingRight=4;overflow=hidden;rotatable=0;points=[[0,0.5],[1,0.5]];portConstraint=eastwest;whiteSpace=wrap;html=1;" vertex="1" parent="X2-w0m3Bgo1d-Rihj-AI-1">
          <mxGeometry y="26" width="170" height="26" as="geometry" />
        </mxCell>
        <mxCell id="X2-w0m3Bgo1d-Rihj-AI-6" value="" style="line;strokeWidth=1;fillColor=none;align=left;verticalAlign=middle;spacingTop=-1;spacingLeft=3;spacingRight=3;rotatable=0;labelPosition=right;points=[];portConstraint=eastwest;strokeColor=inherit;" vertex="1" parent="X2-w0m3Bgo1d-Rihj-AI-1">
          <mxGeometry y="52" width="170" height="8" as="geometry" />
        </mxCell>
        <mxCell id="X2-w0m3Bgo1d-Rihj-AI-9" value="" style="endArrow=open;endFill=1;endSize=12;html=1;rounded=0;entryX=0.471;entryY=0;entryDx=0;entryDy=0;exitX=0;exitY=0.5;exitDx=0;exitDy=0;entryPerimeter=0;" edge="1" parent="1" source="HNDl7urIIbBph4469Otl-36" target="X2-w0m3Bgo1d-Rihj-AI-1">
          <mxGeometry width="160" relative="1" as="geometry">
            <mxPoint x="-150" y="1438.8899999999999" as="sourcePoint" />
            <mxPoint x="40" y="1439.3600000000001" as="targetPoint" />
            <Array as="points">
              <mxPoint x="-40" y="1250" />
            </Array>
          </mxGeometry>
        </mxCell>
        <mxCell id="X2-w0m3Bgo1d-Rihj-AI-10" value="" style="endArrow=open;endFill=1;endSize=12;html=1;rounded=0;entryX=0;entryY=0.5;entryDx=0;entryDy=0;exitX=0;exitY=0.5;exitDx=0;exitDy=0;" edge="1" parent="1" source="HNDl7urIIbBph4469Otl-51" target="X2-w0m3Bgo1d-Rihj-AI-3">
          <mxGeometry width="160" relative="1" as="geometry">
            <mxPoint x="120" y="790" as="sourcePoint" />
            <mxPoint x="310" y="790.47" as="targetPoint" />
            <Array as="points">
              <mxPoint x="-360" y="1079" />
              <mxPoint x="-360" y="1499" />
            </Array>
          </mxGeometry>
        </mxCell>
      </root>
    </mxGraphModel>
  </diagram>
</mxfile>
